<svg xmlns="http://www.w3.org/2000/svg" width="1120" height="820" viewBox="0 0 1120 820">
<rect width="1120" height="820" fill="#eef4f7"/>
<style>text{font-family:Arial,sans-serif;fill:#17364b} .title{font-size:29px;font-weight:bold}.sub{font-size:15px}.grid{stroke:#d2e0e7;stroke-width:1}.label{font-size:13px}.number{font-size:13px;font-weight:bold;fill:white;text-anchor:middle;dominant-baseline:middle}</style>
<text x="60" y="43" class="title">FROSTLINE OUTPOST</text>
<text x="60" y="70" class="sub">Hoth · Town center 671, 2035 · Ground elevation 0 m</text>
<rect x="55" y="90" width="635" height="610" rx="12" fill="#fff" stroke="#becfd9"/>
<path d="M87.00,100 V690" class="grid"/>
<text x="87.00" y="716" class="label" text-anchor="middle">550</text>
<path d="M172.00,100 V690" class="grid"/>
<text x="172.00" y="716" class="label" text-anchor="middle">600</text>
<path d="M257.00,100 V690" class="grid"/>
<text x="257.00" y="716" class="label" text-anchor="middle">650</text>
<path d="M342.00,100 V690" class="grid"/>
<text x="342.00" y="716" class="label" text-anchor="middle">700</text>
<path d="M427.00,100 V690" class="grid"/>
<text x="427.00" y="716" class="label" text-anchor="middle">750</text>
<path d="M512.00,100 V690" class="grid"/>
<text x="512.00" y="716" class="label" text-anchor="middle">800</text>
<path d="M597.00,100 V690" class="grid"/>
<text x="597.00" y="716" class="label" text-anchor="middle">850</text>
<path d="M682.00,100 V690" class="grid"/>
<text x="682.00" y="716" class="label" text-anchor="middle">900</text>
<path d="M65,657.50 H680" class="grid"/>
<text x="49" y="661.50" class="label" text-anchor="end">1900</text>
<path d="M65,572.50 H680" class="grid"/>
<text x="49" y="576.50" class="label" text-anchor="end">1950</text>
<path d="M65,487.50 H680" class="grid"/>
<text x="49" y="491.50" class="label" text-anchor="end">2000</text>
<path d="M65,402.50 H680" class="grid"/>
<text x="49" y="406.50" class="label" text-anchor="end">2050</text>
<path d="M65,317.50 H680" class="grid"/>
<text x="49" y="321.50" class="label" text-anchor="end">2100</text>
<path d="M65,232.50 H680" class="grid"/>
<text x="49" y="236.50" class="label" text-anchor="end">2150</text>
<path d="M65,147.50 H680" class="grid"/>
<text x="49" y="151.50" class="label" text-anchor="end">2200</text>
<path d="M682.00,100 V657.50 H65" fill="none" stroke="#c56d62" stroke-width="2" stroke-dasharray="7 5"/>
<polygon points="251.90,236.77 333.50,236.77 333.50,184.90 251.90,184.90" fill="#39718d" stroke="#173f58" stroke-width="1.5"><title>Frostline Starport: 671, 2170; heading 0°</title></polygon>
<text x="292.70" y="198.50" class="number">1</text>
<circle cx="270.13" cy="228.25" r="4" fill="#e3a33c" stroke="#744b12"/>
<circle cx="736" cy="127" r="12" fill="#39718d"/><text x="736" y="127" class="number">1</text>
<text x="759" y="132" class="sub">Frostline Starport</text>
<text x="759" y="150" class="label">671, 2170 · 1 interior cells</text>
<polygon points="150.75,415.25 150.75,440.75 176.25,440.75 176.25,415.25" fill="#39718d" stroke="#173f58" stroke-width="1.5"><title>Frostline Cloning Clinic: 595, 2035; heading 90°</title></polygon>
<text x="163.50" y="428.00" class="number">2</text>
<circle cx="174.55" cy="428.00" r="4" fill="#e3a33c" stroke="#744b12"/>
<circle cx="736" cy="171" r="12" fill="#39718d"/><text x="736" y="171" class="number">2</text>
<text x="759" y="176" class="sub">Frostline Cloning Clinic</text>
<text x="759" y="194" class="label">595, 2035 · 6 interior cells</text>
<polygon points="434.65,440.75 434.65,415.25 409.15,415.25 409.15,440.75" fill="#39718d" stroke="#173f58" stroke-width="1.5"><title>Frostline Bank: 747, 2035; heading -90°</title></polygon>
<text x="421.90" y="428.00" class="number">3</text>
<circle cx="410.85" cy="428.00" r="4" fill="#e3a33c" stroke="#744b12"/>
<circle cx="736" cy="215" r="12" fill="#39718d"/><text x="736" y="215" class="number">3</text>
<text x="759" y="220" class="sub">Frostline Bank</text>
<text x="759" y="238" class="label">747, 2035 · 6 interior cells</text>
<polygon points="279.95,585.25 305.45,585.25 305.45,559.75 279.95,559.75" fill="#39718d" stroke="#173f58" stroke-width="1.5"><title>Frostline Cantina: 671, 1950; heading 0°</title></polygon>
<text x="292.70" y="572.50" class="number">4</text>
<circle cx="292.70" cy="561.45" r="4" fill="#e3a33c" stroke="#744b12"/>
<circle cx="736" cy="259" r="12" fill="#39718d"/><text x="736" y="259" class="number">4</text>
<text x="759" y="264" class="sub">Frostline Cantina</text>
<text x="759" y="282" class="label">671, 1950 · 6 interior cells</text>
<polygon points="586.44,643.36 639.93,643.36 639.93,588.28 586.44,588.28" fill="#39718d" stroke="#173f58" stroke-width="1.5"><title>Frostline Shuttleport: 860, 1925; heading 0°</title></polygon>
<text x="614.00" y="615.00" class="number">5</text>
<circle cx="736" cy="303" r="12" fill="#39718d"/><text x="736" y="303" class="number">5</text>
<text x="759" y="308" class="sub">Frostline Shuttleport</text>
<text x="759" y="326" class="label">860, 1925 · 0 interior cells</text>
<polygon points="573.24,455.24 573.24,400.76 518.76,400.76 518.76,455.24" fill="#39718d" stroke="#173f58" stroke-width="1.5"><title>Frostline Vehicle Garage: 820, 2035; heading -90°</title></polygon>
<text x="546.00" y="428.00" class="number">6</text>
<circle cx="736" cy="347" r="12" fill="#39718d"/><text x="736" y="347" class="number">6</text>
<text x="759" y="352" class="sub">Frostline Vehicle Garage</text>
<text x="759" y="370" class="label">820, 2035 · 0 interior cells</text>
<polygon points="150.75,287.75 150.75,313.25 176.25,313.25 176.25,287.75" fill="#39718d" stroke="#173f58" stroke-width="1.5"><title>Frostline Workshop: 595, 2110; heading 90°</title></polygon>
<text x="163.50" y="300.50" class="number">7</text>
<circle cx="174.55" cy="300.50" r="4" fill="#e3a33c" stroke="#744b12"/>
<circle cx="736" cy="391" r="12" fill="#39718d"/><text x="736" y="391" class="number">7</text>
<text x="759" y="396" class="sub">Frostline Workshop</text>
<text x="759" y="414" class="label">595, 2110 · 6 interior cells</text>
<polygon points="434.65,313.25 434.65,287.75 409.15,287.75 409.15,313.25" fill="#39718d" stroke="#173f58" stroke-width="1.5"><title>Survey Team Quarters: 747, 2110; heading -90°</title></polygon>
<text x="421.90" y="300.50" class="number">8</text>
<circle cx="410.85" cy="300.50" r="4" fill="#e3a33c" stroke="#744b12"/>
<circle cx="736" cy="435" r="12" fill="#39718d"/><text x="736" y="435" class="number">8</text>
<text x="759" y="440" class="sub">Survey Team Quarters</text>
<text x="759" y="458" class="label">747, 2110 · 6 interior cells</text>
<polygon points="150.75,559.75 150.75,585.25 176.25,585.25 176.25,559.75" fill="#39718d" stroke="#173f58" stroke-width="1.5"><title>Expedition Quarters: 595, 1950; heading 90°</title></polygon>
<text x="163.50" y="572.50" class="number">9</text>
<circle cx="174.55" cy="572.50" r="4" fill="#e3a33c" stroke="#744b12"/>
<circle cx="736" cy="479" r="12" fill="#39718d"/><text x="736" y="479" class="number">9</text>
<text x="759" y="484" class="sub">Expedition Quarters</text>
<text x="759" y="502" class="label">595, 1950 · 6 interior cells</text>
<circle cx="265.50" cy="385.50" r="3" fill="#6a9ec7" stroke="#326184"/>
<circle cx="319.90" cy="385.50" r="3" fill="#6a9ec7" stroke="#326184"/>
<circle cx="265.50" cy="317.50" r="3" fill="#6a9ec7" stroke="#326184"/>
<circle cx="319.90" cy="317.50" r="3" fill="#6a9ec7" stroke="#326184"/>
<circle cx="223.00" cy="453.50" r="3" fill="#6a9ec7" stroke="#326184"/>
<circle cx="367.50" cy="453.50" r="3" fill="#6a9ec7" stroke="#326184"/>
<circle cx="265.50" cy="521.50" r="3" fill="#6a9ec7" stroke="#326184"/>
<circle cx="319.90" cy="521.50" r="3" fill="#6a9ec7" stroke="#326184"/>
<circle cx="435.50" cy="547.00" r="3" fill="#6a9ec7" stroke="#326184"/>
<circle cx="512.00" cy="598.00" r="3" fill="#6a9ec7" stroke="#326184"/>
<circle cx="537.50" cy="564.00" r="3" fill="#6a9ec7" stroke="#326184"/>
<circle cx="571.50" cy="598.00" r="3" fill="#6a9ec7" stroke="#326184"/>
<rect x="338.00" y="424.00" width="8" height="8" fill="#40805c"/>
<text x="350.00" y="432.00" class="label">Bazaar</text>
<path d="M285.70,428.00 h14 M292.70,421.00 v14" stroke="#17364b" stroke-width="2"/>
<path d="M640,140 V110 l-6,10 m6,-10 l6,10" fill="none" stroke="#17364b" stroke-width="2"/><text x="640" y="157" text-anchor="middle" class="label">N</text>
<text x="725" y="551" class="sub">Map key</text>
<circle cx="733" cy="579" r="4" fill="#e3a33c"/><text x="751" y="584" class="label">Authored building entrance</text>
<circle cx="733" cy="605" r="3" fill="#6a9ec7"/><text x="751" y="610" class="label">Streetlight</text>
<rect x="729" y="627" width="8" height="8" fill="#40805c"/><text x="751" y="635" class="label">Bazaar terminal · stable snapshot ID</text>
<path d="M726,656 h14" stroke="#c56d62" stroke-width="2" stroke-dasharray="5 3"/><text x="751" y="661" class="label">Edge of verified flat terrain</text>
<path d="M75,749 h85 M75,744 v10 M160,744 v10" stroke="#17364b" stroke-width="2"/><text x="117.5" y="771" text-anchor="middle" class="label">50 metres</text>
<text x="200" y="752" class="label">Building footprints drawn to scale from client asset bounds.</text>
<text x="200" y="774" class="label">Operational services and NPCs are configured separately; this is a site plan.</text>
</svg>
